<svg id="圖層_1" data-name="圖層 1" xmlns="http://www.w3.org/2000/svg" viewBox="0 0 360 250"><defs><style>.cls-1{fill:#e6e6e6;}.cls-2{fill:#fff;}.cls-3{fill:#33c;}.cls-4{fill:#ccc;}.cls-5{fill:#ffb9b9;}.cls-6{fill:#2f2e41;}.cls-7{fill:#3f3d56;}</style></defs><title>b-1</title><rect class="cls-1" x="151.01" y="29.8" width="105.8" height="67.76"/><rect class="cls-2" x="154.04" y="38.3" width="99.75" height="55.25"/><rect class="cls-3" x="150.97" y="29.74" width="105.8" height="4.49"/><circle class="cls-2" cx="154.31" cy="32.04" r="0.83"/><circle class="cls-2" cx="157.47" cy="32.04" r="0.83"/><circle class="cls-2" cx="160.63" cy="32.04" r="0.83"/><path class="cls-4" d="M225.56,43.47H193.09a.29.29,0,0,1-.25-.32.3.3,0,0,1,.25-.25h32.47a.28.28,0,0,1,.25.32A.3.3,0,0,1,225.56,43.47Z"/><path class="cls-4" d="M203.06,46.61H182.41a.29.29,0,0,1,0-.57h20.65a.29.29,0,0,1,.25.33A.28.28,0,0,1,203.06,46.61Z"/><path class="cls-4" d="M225.56,46.67H204.92a.29.29,0,0,1,0-.57h20.64a.29.29,0,0,1,.25.32A.3.3,0,0,1,225.56,46.67Z"/><path class="cls-4" d="M203.11,49.76H182.46a.29.29,0,0,1-.24-.33.26.26,0,0,1,.24-.24h20.65a.28.28,0,0,1,.25.32A.3.3,0,0,1,203.11,49.76Z"/><path class="cls-4" d="M203.16,52.9H182.51a.29.29,0,0,1,0-.57h20.65a.28.28,0,0,1,.25.32A.3.3,0,0,1,203.16,52.9Z"/><path class="cls-4" d="M212.53,49.76h-5.91a.29.29,0,0,1-.25-.33.28.28,0,0,1,.25-.24h5.91a.28.28,0,0,1,.25.32.3.3,0,0,1-.25.25Z"/><path class="cls-4" d="M212.53,52.84h-5.91a.28.28,0,0,1-.25-.32.3.3,0,0,1,.25-.25h5.91a.29.29,0,0,1,.25.33.29.29,0,0,1-.25.24Z"/><path class="cls-4" d="M222.46,52.84h-5.92a.28.28,0,0,1-.25-.32.3.3,0,0,1,.25-.25h5.92a.29.29,0,0,1,.24.33A.28.28,0,0,1,222.46,52.84Z"/><path class="cls-4" d="M188.18,43.47h-5.92a.28.28,0,0,1-.24-.32.28.28,0,0,1,.24-.25h5.92a.29.29,0,0,1,0,.57Z"/><path class="cls-4" d="M203,79.51H182.34a.28.28,0,0,1-.25-.32.3.3,0,0,1,.25-.25H203a.29.29,0,0,1,.24.32.28.28,0,0,1-.24.25Z"/><path class="cls-4" d="M202.89,85.8H182.24a.29.29,0,0,1,0-.57h20.65a.28.28,0,0,1,.24.32A.29.29,0,0,1,202.89,85.8Z"/><path class="cls-4" d="M202.94,88.94H182.29a.28.28,0,0,1-.25-.32.3.3,0,0,1,.25-.25h20.65a.29.29,0,0,1,.24.32.28.28,0,0,1-.24.25Z"/><path class="cls-4" d="M211.76,85.86h-5.92a.29.29,0,0,1-.25-.33.3.3,0,0,1,.25-.25h5.92a.3.3,0,0,1,.24.33.29.29,0,0,1-.24.25Z"/><path class="cls-4" d="M211.76,88.94h-5.92a.28.28,0,0,1-.25-.32.3.3,0,0,1,.25-.25h5.92a.29.29,0,0,1,.24.32.28.28,0,0,1-.24.25Z"/><path class="cls-4" d="M221.68,85.86h-5.92a.29.29,0,0,1-.24-.33.29.29,0,0,1,.24-.25h5.92a.29.29,0,0,1,0,.58Z"/><path class="cls-4" d="M225.59,82.66H193.11a.31.31,0,0,1-.25-.33.3.3,0,0,1,.25-.25h32.48a.29.29,0,0,1,.25.33A.3.3,0,0,1,225.59,82.66Z"/><path class="cls-4" d="M188.2,82.66h-5.91a.29.29,0,0,1,0-.58h5.91a.29.29,0,0,1,.25.33A.3.3,0,0,1,188.2,82.66Z"/><polygon class="cls-1" points="198 57.98 189.98 65.9 198 73.81 199.8 72.01 193.74 65.95 199.85 59.83 198 57.98"/><polygon class="cls-1" points="209.83 57.98 217.84 65.9 209.83 73.81 208.02 72.01 214.09 65.95 207.97 59.83 209.83 57.98"/><polygon class="cls-3" points="198 57.98 189.98 65.9 198 73.81 199.8 72.01 193.74 65.95 199.85 59.83 198 57.98"/><polygon class="cls-3" points="209.83 57.98 217.84 65.9 209.83 73.81 208.02 72.01 214.09 65.95 207.97 59.83 209.83 57.98"/><path class="cls-1" d="M184.61,124.21c2.5,3.35,7.68,3.7,7.68,3.7s1.13-5.07-1.36-8.41-7.68-3.69-7.68-3.69S182.12,120.87,184.61,124.21Z"/><path class="cls-1" d="M197.32,125.47c-1.64,2.2-5.06,2.44-5.06,2.44s-.75-3.35.9-5.55,5.06-2.44,5.06-2.44S199,123.27,197.32,125.47Z"/><polygon class="cls-5" points="129.11 109.5 129.11 118.17 126.63 118.17 124.98 109.09 129.11 109.5"/><polygon class="cls-5" points="109.5 109.5 109.5 118.17 107.02 118.17 105.36 109.09 109.5 109.5"/><path class="cls-5" d="M122.57,45.57s-4-2.87-4.48-1.5,3,3.86,3,3.86Z"/><path class="cls-6" d="M108.44,49.24c0,4.94,2.13,5.1,5.6,5.1s7-.16,7-5.1-2.81-9-6.28-9S108.44,44.29,108.44,49.24Z"/><path class="cls-5" d="M117,49.17s-.5,3.74,1.86,4-7.71,1-7.71,1,2.61-2.36,1.24-4.23S117,49.17,117,49.17Z"/><path class="cls-6" d="M129.54,115.87l.87,7.34s4.35,5.35,1.61,5-4.48.08-4.48-.42-.06-2.27-.43-2.27-.69,2.8-.69,2.8a5.28,5.28,0,0,1-1.24-.2c-.12-.13-.25-7.25-.25-7.25s-.37-2.12.37-3.11a2.75,2.75,0,0,0,.63-1.87Z"/><path class="cls-6" d="M109.71,115.79l.87,7.34s4.36,5.35,1.62,5-4.48.08-4.48-.42-.06-2.27-.44-2.27-.68,2.8-.68,2.8a5.28,5.28,0,0,1-1.24-.2c-.13-.13-.25-7.25-.25-7.25s-.38-2.12.37-3.11a2.71,2.71,0,0,0,.62-1.87Z"/><path class="cls-6" d="M123.06,72.2s4,11.32,4.24,13.81S127.05,97,127.05,97s3.61,14.62,2.86,14.74-4.91.72-5,.09-.57-1.58-.44-2-.38-1.75-.38-2.49-1.74-4.67-1.62-5.29A84.45,84.45,0,0,0,120,91.48c-.37-.74-1.36-6-1.36-6s-5.6,15.31-5.73,15.68-.62,1-.37,1.12-.38,1-.38,1-1.29,5.17-1.29,5.42.25,3.06-.24,3.19-5.59.11-5.83-.76,2.64-11,2.64-11,2.11-6.34,1.49-8,.62-11.32,1.12-12.07.62-5.23.62-5.23Z"/><circle class="cls-5" cx="114.79" cy="47.25" r="3.98"/><path class="cls-3" d="M117,52.29s-4.48.12-4.73-.25-6.47.87-6.47,3.36,3.61,12.19,3.61,12.19,1.37,7,1,7.72,13.81-1.62,13.44-2.87-2.49-4,.25-6.34a15.76,15.76,0,0,0,3.86-4.86l-3.24-8.58s-3.23-.5-4,0S117,52.29,117,52.29Z"/><path class="cls-3" d="M127.05,61.87l.87-.63s8.09-8.46,6-10.07-5.23-3.12-6.72-3.24a5.36,5.36,0,0,1-2.74-1.24s-1.61-2.87-2.86-1-2.61,2.49-.87,3.11,2.86.37,3.73,1,4.23,1.61,2.74,2a13.61,13.61,0,0,0-2.49.87l-1.62,2.86Z"/><path class="cls-5" d="M113,82.9s3.23,4.73.87,4.48-3.49-3.49-3.49-3.49Z"/><path class="cls-3" d="M106.64,54.77l-.87.63s-2.86,15.68,0,19.78S108.88,79,108.88,79s.5-.37.75,2.11-.13,3.49.62,3.49,4.1-.75,3.86-1.37a49.29,49.29,0,0,1-2-5.1c-.12-.87-.74-2.86-1-4s1.12-1.75.5-4.11a58.27,58.27,0,0,1-1.5-7.47C110.12,61.74,106.64,54.77,106.64,54.77Z"/><path class="cls-6" d="M110.93,43.7c0,1.34,1.84,2.43,4.11,2.43s4.35.71,4.35-.63-2.08-4.23-4.35-4.23S110.93,42.36,110.93,43.7Z"/><path class="cls-6" d="M121,50.08s.17,4.51-4.31,4.26.6-3.86.6-3.86Z"/><rect class="cls-7" x="103.19" y="127.91" width="121.62" height="0.39"/></svg>