<svg id="圖層_1" data-name="圖層 1" xmlns="http://www.w3.org/2000/svg" viewBox="0 0 360 250"><defs><style>.cls-1{fill:#3f3d56;}.cls-2{fill:#2f2e41;}.cls-3{fill:#ffb8b8;}.cls-4{opacity:0.1;isolation:isolate;}.cls-5{fill:#ea327d;}.cls-6{fill:#fff;}.cls-7{fill:#ff6584;}</style></defs><title>b-3</title><rect class="cls-1" x="103.19" y="127.72" width="152.22" height="0.38"/><path class="cls-2" d="M125.22,40.62a7.67,7.67,0,0,0-5.33-4.47s-3.68-1-6.75,3.92c-2.87,4.63-6.56,9-1.88,10.81l1.24-2.76.15,3.18a18,18,0,0,0,2.06.33c5.2.56,10.1,1.49,10.19-.5C125,48.48,126.66,44.24,125.22,40.62Z"/><path class="cls-3" d="M109.36,70.74,109,79.79s-3.52,7.28-.67,7.1,2.5-7.1,2.5-7.1l1-8.51Z"/><path class="cls-3" d="M129.36,69.63l1.24,11.23s3.74,6,.83,7.94-2.9-7-2.9-7l-3.12-11.46Z"/><path class="cls-3" d="M125.08,86l-3,12.42s-1.34,5-3.18,7.46l-.67,1.42-2.67-.36,1.84-8,1.17-14.73Z"/><path class="cls-4" d="M125.08,86l-3,12.42s-1.34,5-3.18,7.46l-.67,1.42-2.67-.36,1.84-8,1.17-14.73Z"/><path class="cls-2" d="M114.88,105l4.58,1.12-1.89,4.72s.77,2.82,0,4.32a11.18,11.18,0,0,0-.63,4.2l-1-.16s-2.4,4.81-5.25,3.43.19-4.64.19-4.64,2.45-5.16,2.77-7.26S114.88,105,114.88,105Z"/><path class="cls-4" d="M114.88,105l4.58,1.12-1.89,4.72s.77,2.82,0,4.32a11.18,11.18,0,0,0-.63,4.2l-1-.16s-2.4,4.81-5.25,3.43.19-4.64.19-4.64,2.45-5.16,2.77-7.26S114.88,105,114.88,105Z"/><path class="cls-3" d="M111,83.34l2.51,13.32s-.84,6.56.17,10.65l1,3.9h3.34V96.83s.17-11.71-.33-12.6S111,83.34,111,83.34Z"/><path class="cls-2" d="M118.72,109.79l-4.68.35,1.17,5s-1.17,2.67-.67,4.26a11.25,11.25,0,0,1,0,4.26h1s1.67,5.15,4.68,4.26.5-4.61.5-4.61-1.67-5.5-1.67-7.63S118.72,109.79,118.72,109.79Z"/><ellipse class="cls-3" cx="119.89" cy="43.59" rx="4.51" ry="4.79"/><path class="cls-3" d="M116.8,45.45s.33,6-.67,6.39,5.19,0,5.19,0-.84-3.73,0-4.79S116.8,45.45,116.8,45.45Z"/><path class="cls-5" d="M121.4,50.86s-4.35-.35-5.18,0A28.14,28.14,0,0,0,113,53l1.17,11.19,9.53,2.13,1.5-2.31,1.51-3.37-.67-4.26-.17-2.49Z"/><path class="cls-5" d="M112.2,53.7s-2.17.54-2.34,2.31a46.38,46.38,0,0,0,0,6.92,1.28,1.28,0,0,1-.17,1.25c-.16.17-.5-.18-.16.35s.33.53.16,1.07-.66-.18-.33.71.5,1.06.33,1.24-.66,4.26-.66,4.26l2.84.53,2.84-10.47Z"/><path class="cls-5" d="M125.24,53.7a1.79,1.79,0,0,1,1.51,1.07,45.19,45.19,0,0,1,1.67,8.52c-.17.53-.5-.18-.17.89s0,.88.17,1.59-.67,0,0,.71,1,.89.67,1.25-.84-.36-.33.35a3.57,3.57,0,0,1,.5,1.78l-4,.88-1.17-9.94Z"/><path class="cls-2" d="M111.68,53.42l.82-.43a.67.67,0,0,1,.94.33h0l3.77,8.18,4.18,2.84,3-1.42s2.17-3.55,1.5-5.32c-.45-1.2-1-3.06-1.28-4.12a.34.34,0,0,1,.21-.4.28.28,0,0,1,.25,0l.57.41a.86.86,0,0,1,.35.55l1.24,6.36-1.67,3.73v3.55l1.17,19.16s-4.35-.71-8.7-1.59-9.86-1.6-9.86-1.6,2.84-15.62,5.18-18.28c0,0,0-2,.34-2.13s.67-1.42.67-1.42l-3-7.49A.77.77,0,0,1,111.68,53.42Z"/><polygon class="cls-2" points="124.37 39.26 120.54 37.13 115.25 38 114.15 43.13 116.88 43.02 117.64 41.13 117.64 42.99 118.89 42.94 119.62 39.94 120.08 43.13 124.55 43.03 124.37 39.26"/><ellipse class="cls-3" cx="115.3" cy="43.59" rx="0.5" ry="0.93"/><rect class="cls-1" x="134.77" y="29.74" width="121.99" height="66.41"/><path class="cls-6" d="M187.07,66.32H161.78a.29.29,0,0,1-.29-.3h0V55.28a.29.29,0,0,1,.29-.3h25.29a.29.29,0,0,1,.29.3h0V66a.29.29,0,0,1-.29.3Zm-25-.61h24.72V55.58H162.06Z"/><path class="cls-6" d="M172.53,73.37H161.78a.3.3,0,0,1-.29-.3h0V68.5a.29.29,0,0,1,.29-.3h10.75a.29.29,0,0,1,.28.3h0v4.57a.3.3,0,0,1-.28.3Zm-10.47-.61h10.18v-4H162.06Z"/><path class="cls-6" d="M187.07,73.37H176.32a.3.3,0,0,1-.29-.3h0V68.5a.29.29,0,0,1,.29-.3h10.75a.29.29,0,0,1,.29.3h0v4.57a.3.3,0,0,1-.29.3Zm-10.46-.61h10.17v-4H176.61Z"/><path class="cls-6" d="M186.75,66l-.1,0-25-10.41a.3.3,0,0,1-.16-.39.28.28,0,0,1,.37-.17l25,10.4a.31.31,0,0,1,.16.39.29.29,0,0,1-.27.2Z"/><path class="cls-6" d="M161.78,66.32a.29.29,0,0,1-.29-.3.29.29,0,0,1,.18-.28L187,55a.27.27,0,0,1,.37.17.31.31,0,0,1-.15.39L161.88,66.3A.18.18,0,0,1,161.78,66.32Z"/><path class="cls-6" d="M172.37,73.2l-.11,0-10.43-4.36a.31.31,0,0,1-.16-.4.28.28,0,0,1,.37-.17l10.43,4.37a.3.3,0,0,1,.16.39.28.28,0,0,1-.26.19Z"/><path class="cls-6" d="M161.93,73.2a.29.29,0,0,1-.28-.3.3.3,0,0,1,.19-.29l10.43-4a.28.28,0,0,1,.37.18.32.32,0,0,1-.17.39h0l-10.44,4A.16.16,0,0,1,161.93,73.2Z"/><path class="cls-6" d="M186.91,73.2a.18.18,0,0,1-.1,0l-10.12-4a.31.31,0,0,1-.16-.4.27.27,0,0,1,.36-.17l10.12,4a.32.32,0,0,1,.17.39A.29.29,0,0,1,186.91,73.2Z"/><path class="cls-6" d="M176.79,72.87a.3.3,0,0,1-.28-.31.28.28,0,0,1,.19-.28l10.12-3.7a.28.28,0,0,1,.36.19.32.32,0,0,1-.17.39h0l-10.11,3.69Z"/><path class="cls-6" d="M146.16,49.19a4.57,4.57,0,1,1,4.3-4.56h0A4.43,4.43,0,0,1,146.16,49.19Zm0-8.51a4,4,0,1,0,3.73,4h0a3.85,3.85,0,0,0-3.73-4Z"/><path class="cls-6" d="M174.52,49.19a4.57,4.57,0,1,1,4.3-4.56A4.43,4.43,0,0,1,174.52,49.19Zm0-8.51a4,4,0,1,0,3.73,4h0a3.85,3.85,0,0,0-3.73-4Z"/><path class="cls-6" d="M209.75,49.19a4.57,4.57,0,1,1,4.3-4.56A4.43,4.43,0,0,1,209.75,49.19Zm0-8.51a4,4,0,1,0,3.73,4h0a3.85,3.85,0,0,0-3.73-4Z"/><path class="cls-6" d="M246.67,49.19A4.57,4.57,0,1,1,251,44.63,4.43,4.43,0,0,1,246.67,49.19Zm0-8.51a4,4,0,1,0,3.72,4,3.85,3.85,0,0,0-3.72-4Z"/><path class="cls-6" d="M173.76,46v-.23l.28-.29c.67-.67,1-1,1-1.44a.49.49,0,0,0-.42-.55h-.1a.83.83,0,0,0-.55.23l-.11-.26a1.07,1.07,0,0,1,.73-.29.76.76,0,0,1,.8.71V44c0,.51-.35.92-.9,1.49l-.2.2h1.17V46Z"/><path class="cls-6" d="M146.07,43.6h0l-.45.26-.07-.29.57-.32h.3V46h-.34Z"/><path class="cls-6" d="M246.92,46v-.76h-1.21V45l1.17-1.77h.38V45h.36v.29h-.36V46Zm0-1.05V44c0-.14,0-.29,0-.43h0l-.21.41-.64.94h.85Z"/><path class="cls-6" d="M209.31,45.59a1.12,1.12,0,0,0,.58.17.53.53,0,0,0,.59-.54c0-.38-.33-.55-.67-.55h-.2v-.28h.2c.25,0,.58-.14.58-.47a.41.41,0,0,0-.46-.42.89.89,0,0,0-.52.19l-.09-.28a1.19,1.19,0,0,1,.68-.21.67.67,0,0,1,.75.66.69.69,0,0,1-.49.65h0a.7.7,0,0,1,.59.71.85.85,0,0,1-.95.83,1.24,1.24,0,0,1-.68-.18Z"/><path class="cls-6" d="M223.16,73.07H197.87a.3.3,0,0,1-.29-.31h0V55.58a.3.3,0,0,1,.29-.3h25.29a.3.3,0,0,1,.29.3h0V72.76a.3.3,0,0,1-.29.31Zm-25-.61h24.72V55.89H198.15Z"/><path class="cls-6" d="M218.63,59.08H203.17a.31.31,0,0,1,0-.61h15.46a.31.31,0,0,1,0,.61Z"/><path class="cls-6" d="M218.63,61.82H203.17a.3.3,0,0,1-.29-.31.29.29,0,0,1,.29-.3h15.46a.29.29,0,0,1,.29.3A.3.3,0,0,1,218.63,61.82Z"/><path class="cls-6" d="M218.63,64.55H203.17a.29.29,0,0,1-.29-.3.3.3,0,0,1,.29-.31h15.46a.3.3,0,0,1,.29.31.29.29,0,0,1-.29.3Z"/><path class="cls-6" d="M218.63,67.29H203.17a.31.31,0,0,1,0-.61h15.46a.31.31,0,0,1,0,.61Z"/><path class="cls-6" d="M218.63,70H203.17a.3.3,0,0,1-.29-.31.29.29,0,0,1,.29-.3h15.46a.29.29,0,0,1,.29.3.3.3,0,0,1-.29.31Z"/><path class="cls-6" d="M140.25,56.12a.3.3,0,0,0,.28-.32.3.3,0,0,0-.28-.3.32.32,0,0,0-.29.32A.3.3,0,0,0,140.25,56.12Z"/><path class="cls-6" d="M140.25,59.47a.3.3,0,0,0,.28-.32.31.31,0,0,0-.28-.31.32.32,0,0,0-.29.33A.31.31,0,0,0,140.25,59.47Z"/><path class="cls-6" d="M140.25,62.81a.31.31,0,0,0,0-.62.31.31,0,0,0-.29.32A.3.3,0,0,0,140.25,62.81Z"/><path class="cls-6" d="M140.25,66.16a.32.32,0,0,0,0-.63.32.32,0,0,0-.29.33A.31.31,0,0,0,140.25,66.16Z"/><path class="cls-6" d="M140.25,69.5a.3.3,0,0,0,.28-.32.29.29,0,0,0-.28-.3.31.31,0,0,0-.29.32A.31.31,0,0,0,140.25,69.5Z"/><path class="cls-6" d="M140.25,72.85a.32.32,0,0,0,0-.63.32.32,0,0,0,0,.63Z"/><path class="cls-6" d="M152.18,56.12H143a.3.3,0,0,1-.28-.31.29.29,0,0,1,.28-.3h9.17a.29.29,0,0,1,.29.3.3.3,0,0,1-.29.31Z"/><path class="cls-6" d="M152.18,59.46H143a.3.3,0,0,1-.28-.3.29.29,0,0,1,.28-.31h9.17a.31.31,0,0,1,0,.61Z"/><path class="cls-6" d="M152.18,62.8H143a.3.3,0,0,1,0-.6h9.17a.3.3,0,0,1,0,.6Z"/><path class="cls-6" d="M152.18,66.15H143a.31.31,0,0,1,0-.61h9.17a.31.31,0,0,1,0,.61Z"/><path class="cls-6" d="M152.18,69.49H143a.3.3,0,0,1,0-.6h9.17a.3.3,0,0,1,0,.6Z"/><path class="cls-6" d="M152.18,72.84H143a.3.3,0,0,1-.28-.31.29.29,0,0,1,.28-.3h9.17a.31.31,0,0,1,0,.61Z"/><path class="cls-6" d="M249.75,74.23h-6.17a1.59,1.59,0,0,1-1.53-1.64V55.75a1.59,1.59,0,0,1,1.53-1.63h.75a.3.3,0,0,1,.29.3.5.5,0,0,1,0,.12.32.32,0,0,0,.17.42.2.2,0,0,0,.11,0h3.52a.32.32,0,0,0,.31-.33.27.27,0,0,0,0-.12.31.31,0,0,1,.16-.4l.11,0h.8a1.59,1.59,0,0,1,1.54,1.63V72.59A1.6,1.6,0,0,1,249.75,74.23Zm-6.17-19.5a1,1,0,0,0-1,1V72.59a1,1,0,0,0,1,1h6.17a1,1,0,0,0,1-1V55.75a1,1,0,0,0-1-1h-.47a.91.91,0,0,1-.88.87h-3.52a.91.91,0,0,1-.88-.87Z"/><path class="cls-6" d="M237.54,64.55h-8a.29.29,0,0,1-.29-.3.3.3,0,0,1,.29-.31h7.33l-1.66-1.76a.32.32,0,0,1,0-.43.27.27,0,0,1,.4,0L237.74,64a.32.32,0,0,1,0,.43A.25.25,0,0,1,237.54,64.55Z"/><path class="cls-6" d="M235.53,66.68a.3.3,0,0,1-.28-.3.35.35,0,0,1,.08-.22l2-2.13a.27.27,0,0,1,.4,0,.32.32,0,0,1,0,.43h0l-2,2.13A.29.29,0,0,1,235.53,66.68Z"/><path class="cls-7" d="M251.66,90.14h-9.37a37.39,37.39,0,0,1,0-11.85h9.37A22.68,22.68,0,0,0,251.66,90.14Z"/><path class="cls-5" d="M199.66,88.11H209a36.87,36.87,0,0,0,0-11.86h-9.37A22.51,22.51,0,0,1,199.66,88.11Z"/><path class="cls-5" d="M213.91,91.44h9.37a36.81,36.81,0,0,0,0-11.85h-9.37A22.48,22.48,0,0,1,213.91,91.44Z"/><path class="cls-6" d="M207.55,79.71h-5.7c-.1,0-.18-.14-.18-.31s.08-.3.18-.3h5.7c.1,0,.18.13.18.3S207.65,79.71,207.55,79.71Z"/><path class="cls-6" d="M207.55,82.53h-5.7c-.1,0-.18-.14-.18-.31s.08-.3.18-.3h5.7c.1,0,.18.13.18.3S207.65,82.53,207.55,82.53Z"/><path class="cls-6" d="M221.8,84.32h-5.7c-.1,0-.18-.13-.18-.3s.08-.31.18-.31h5.7c.1,0,.18.14.18.31S221.9,84.32,221.8,84.32Z"/><path class="cls-6" d="M221.8,87.14h-5.7c-.1,0-.18-.13-.18-.3s.08-.31.18-.31h5.7c.1,0,.18.14.18.31S221.9,87.14,221.8,87.14Z"/><path class="cls-6" d="M249.58,81.5h-5.7c-.1,0-.17-.14-.17-.3s.07-.31.17-.31h5.7c.1,0,.18.14.18.31S249.68,81.5,249.58,81.5Z"/><path class="cls-6" d="M249.58,84.32h-5.7c-.1,0-.17-.13-.17-.3s.07-.31.17-.31h5.7c.1,0,.18.14.18.31S249.68,84.32,249.58,84.32Z"/><path class="cls-6" d="M207.55,85.35h-5.7c-.1,0-.18-.14-.18-.31s.08-.3.18-.3h5.7c.1,0,.18.13.18.3S207.65,85.35,207.55,85.35Z"/><path class="cls-5" d="M152.55,88.36h9.37a36.81,36.81,0,0,0,0-11.85h-9.37A22.48,22.48,0,0,1,152.55,88.36Z"/><path class="cls-6" d="M160.44,80h-5.7c-.1,0-.18-.13-.18-.3s.08-.31.18-.31h5.7c.1,0,.18.14.18.31S160.54,80,160.44,80Z"/><path class="cls-6" d="M160.44,82.78h-5.7c-.1,0-.18-.13-.18-.3s.08-.31.18-.31h5.7c.1,0,.18.14.18.31S160.54,82.78,160.44,82.78Z"/><path class="cls-6" d="M160.44,85.6h-5.7c-.1,0-.18-.13-.18-.3s.08-.3.18-.3h5.7c.1,0,.18.13.18.3S160.54,85.6,160.44,85.6Z"/><path class="cls-5" d="M173.9,92.41h9.36a36.81,36.81,0,0,0,0-11.85H173.9A22.68,22.68,0,0,1,173.9,92.41Z"/><path class="cls-6" d="M181.78,84h-5.69c-.1,0-.18-.13-.18-.3s.08-.3.18-.3h5.69c.1,0,.18.13.18.3S181.88,84,181.78,84Z"/><path class="cls-6" d="M181.78,86.83h-5.69c-.1,0-.18-.13-.18-.3s.08-.3.18-.3h5.69c.1,0,.18.13.18.3S181.88,86.83,181.78,86.83Z"/><path class="cls-6" d="M181.78,89.65h-5.69c-.1,0-.18-.13-.18-.3s.08-.3.18-.3h5.69c.1,0,.18.13.18.3S181.88,89.65,181.78,89.65Z"/></svg>