<svg id="圖層_1" data-name="圖層 1" xmlns="http://www.w3.org/2000/svg" viewBox="0 0 50 50"><defs><style>.cls-1{fill:none;stroke:#fff;stroke-linecap:round;stroke-miterlimit:10;stroke-width:3.63px;}.cls-2{fill:#fff;}</style></defs><title>favicon</title><path class="cls-1" d="M21.43,46.07a22.17,22.17,0,0,0,3.58.3"/><path class="cls-1" d="M7.55,37.29a21.21,21.21,0,0,0,1.84,2.27A19.27,19.27,0,0,0,11,41.1a22.22,22.22,0,0,0,1.88,1.48q.95.64,2,1.2"/><path class="cls-1" d="M5.15,32.82h0"/><path class="cls-1" d="M25,46.37A21.32,21.32,0,1,0,4,21.53a23.79,23.79,0,0,0-.24,5.94"/><path class="cls-2" d="M15.05,20.64A1.25,1.25,0,0,1,13.24,20,1.53,1.53,0,0,1,14,18l2.53-1.34a3.63,3.63,0,0,1,2.73-.32,2,2,0,0,1,1.31,2.11l-.12,13.3a1.74,1.74,0,0,1-1.93,2,1.74,1.74,0,0,1-1.9-2l.11-12Z"/><path class="cls-2" d="M24.08,32.86a1.58,1.58,0,0,1-.62-2,1.36,1.36,0,0,1,1.72-.62,6.72,6.72,0,0,0,2.5.71c1.8,0,3.17-.71,3.17-2.32,0-2-1.08-2.66-3.85-2.73a1.18,1.18,0,0,1-1.27-1.29A1.19,1.19,0,0,1,27,23.31c2.46,0,3.58-.83,3.58-2.35s-.87-2-2.43-2a3.54,3.54,0,0,0-2.12.83,1.44,1.44,0,0,1-2.15-.37,1.48,1.48,0,0,1,.59-2,8.3,8.3,0,0,1,4.2-1.11c3.08,0,5.7,1.4,5.7,4.39,0,1.81-1.24,3.19-3.31,3.72,2.55.44,4,1.95,4,4.23,0,3.21-2.62,5.14-6.84,5.16A9.19,9.19,0,0,1,24.08,32.86Z"/></svg>