<svg id="圖層_1" data-name="圖層 1" xmlns="http://www.w3.org/2000/svg" viewBox="0 0 90 30"><defs><style>.cls-1{fill:none;stroke:#fff;stroke-linecap:round;stroke-miterlimit:10;stroke-width:1.41px;}.cls-2{fill:#fff;}</style></defs><title>logo-2</title><path class="cls-1" d="M23.46,23.22a8.39,8.39,0,0,0,1.41.12"/><path class="cls-1" d="M18.07,19.81a8.54,8.54,0,0,0,.71.88c.2.21.4.41.62.6a8,8,0,0,0,.73.57,8.65,8.65,0,0,0,.76.47"/><path class="cls-1" d="M17.14,18.07h0"/><path class="cls-1" d="M24.85,23.34a8.29,8.29,0,1,0-8.17-9.66A8.93,8.93,0,0,0,16.59,16"/><path class="cls-2" d="M21,13.34a.47.47,0,0,1-.64-.15.34.34,0,0,1-.06-.12.59.59,0,0,1,.29-.75l1-.52a1.39,1.39,0,0,1,1.06-.12.78.78,0,0,1,.51.82l-.05,5.17a.66.66,0,0,1-.56.76.54.54,0,0,1-.18,0,.68.68,0,0,1-.75-.6.86.86,0,0,1,0-.16l0-4.65Z"/><path class="cls-2" d="M24.49,18.08a.62.62,0,0,1-.24-.78.54.54,0,0,1,.67-.24,2.71,2.71,0,0,0,1,.28c.7,0,1.23-.28,1.23-.9,0-.8-.41-1-1.49-1.07a.47.47,0,0,1-.5-.44v-.06a.48.48,0,0,1,.44-.5h.06c.94,0,1.41-.32,1.41-.91s-.37-.78-1-.78a1.37,1.37,0,0,0-.82.32.56.56,0,0,1-.79-.08l0-.06a.58.58,0,0,1,.23-.79h0a3.34,3.34,0,0,1,1.63-.43c1.2,0,2.22.55,2.22,1.71a1.49,1.49,0,0,1-1.29,1.44,1.62,1.62,0,0,1,1.54,1.65c0,1.25-1,2-2.66,2A3.43,3.43,0,0,1,24.49,18.08Z"/><path class="cls-2" d="M39.85,18V15.44c-.39-.72-1.63-2.64-2.1-3.45a.75.75,0,0,1,.13-1,.64.64,0,0,1,.18-.1.8.8,0,0,1,1.1.25l.06.13.88,1.54c.24.42.57.94.74,1.3h.08c.18-.35.47-.91.71-1.33l.81-1.47c.27-.51.61-.66,1.1-.42a.71.71,0,0,1,.43.91,1.51,1.51,0,0,1-.09.18c-.65,1.15-1.41,2.34-2.17,3.5V18a.94.94,0,1,1-1.87,0Z"/><path class="cls-2" d="M45.13,11.33a1,1,0,0,1,1-1.05h0a1,1,0,0,1,1.05,1v.09a1,1,0,0,1-1,1h-.06a1.07,1.07,0,0,1-1.09-1Zm.17,6.74V14a.94.94,0,0,1,1.84,0v4a.94.94,0,0,1-1.84,0Z"/><path class="cls-2" d="M49.5,17a2.62,2.62,0,0,0,1.68.68c.66,0,1.06-.28,1.07-.8s-.14-.85-1.41-1.5c-1.62-.86-2.32-1.51-2.32-2.63s1.12-2,2.85-2a3.68,3.68,0,0,1,2.24.72.68.68,0,1,1-.8,1.09l0,0A2.26,2.26,0,0,0,51.37,12c-.59,0-.94.25-.94.62s.15.77,1.41,1.41c1.63.85,2.31,1.53,2.31,2.61,0,1.45-1.09,2.31-2.89,2.31a3.63,3.63,0,0,1-2.57-.85.76.76,0,0,1-.1-1,.61.61,0,0,1,.86-.14Z"/><path class="cls-2" d="M60.86,15.18v2.93c0,.58-.3.86-.9.86s-.87-.28-.87-.86V15.25c0-.6-.25-.94-.74-.94a1.12,1.12,0,0,0-1,.87V18.1c0,.58-.33.86-.94.86s-.94-.28-.94-.86V11.27c0-.58.31-.88.94-.88s.94.3.94.88v2.54A1.75,1.75,0,0,1,58.9,13,1.93,1.93,0,0,1,60.86,15.18Z"/><path class="cls-2" d="M67.24,15.2v2.87c0,.58-.22.9-.78.9s-.83-.32-.83-.9v0a2,2,0,0,1-1.88.94,1.67,1.67,0,0,1-1.85-1.75c0-1.28,1.2-2.08,3-2.08a3.77,3.77,0,0,1,.58,0v-.1a.82.82,0,0,0-.74-.89h-.13a1.82,1.82,0,0,0-1.38.63.63.63,0,0,1-.89.1l0,0a.6.6,0,0,1-.1-.85l0,0a3.11,3.11,0,0,1,2.38-1,2.66,2.66,0,0,1,2.1.72A2.06,2.06,0,0,1,67.24,15.2Zm-1.73,1.08a3.69,3.69,0,0,0-.58,0c-1,.06-1.41.47-1.37.88s.25.58.69.58a1.47,1.47,0,0,0,1.26-.87Z"/><path class="cls-2" d="M74.15,15.18v2.89a.94.94,0,0,1-1.84,0V15.32c0-.68-.28-1.1-.77-1.1a1.21,1.21,0,0,0-1.05,1v2.82a.94.94,0,0,1-1.84,0V13.87a.85.85,0,0,1,1.7,0V14a1.91,1.91,0,0,1,1.71-1A2,2,0,0,1,74.15,15.18Z"/></svg>