<svg id="圖層_1" data-name="圖層 1" xmlns="http://www.w3.org/2000/svg" viewBox="0 0 360 250"><defs><style>.cls-1,.cls-2{fill:#f5be1b;}.cls-1,.cls-5{opacity:0.1;}.cls-1,.cls-12,.cls-5{isolation:isolate;}.cls-3{fill:#46455b;}.cls-4{fill:#3f3d56;}.cls-6{fill:#323444;}.cls-7{fill:#fbb3b2;}.cls-8{fill:#5b5583;}.cls-9{fill:#3c354c;}.cls-10{fill:#cbceda;}.cls-11{fill:#a8a8a8;}.cls-12{opacity:0.2;}</style></defs><title>b-2</title><path class="cls-1" d="M135.77,38.36h11.52a1.2,1.2,0,0,1,1.21,1.18v1.78a1.2,1.2,0,0,1-1.21,1.18H135.77a1.2,1.2,0,0,1-1.21-1.18V39.54A1.2,1.2,0,0,1,135.77,38.36Z"/><path class="cls-1" d="M150.35,42.5h11.52a1.2,1.2,0,0,1,1.21,1.19v1.77a1.2,1.2,0,0,1-1.21,1.19H150.35a1.2,1.2,0,0,1-1.21-1.19V43.69A1.2,1.2,0,0,1,150.35,42.5Z"/><path class="cls-1" d="M164.93,46.65h11.53a1.19,1.19,0,0,1,1.2,1.18v1.78a1.19,1.19,0,0,1-1.2,1.18H164.93a1.19,1.19,0,0,1-1.2-1.18V47.83A1.19,1.19,0,0,1,164.93,46.65Z"/><path class="cls-1" d="M135.77,32.14h11.52a1.2,1.2,0,0,1,1.21,1.18V35.1a1.2,1.2,0,0,1-1.21,1.18H135.77a1.2,1.2,0,0,1-1.21-1.18V33.32A1.2,1.2,0,0,1,135.77,32.14Z"/><path class="cls-1" d="M150.35,36.28h11.52a1.2,1.2,0,0,1,1.21,1.19v1.77a1.2,1.2,0,0,1-1.21,1.19H150.35a1.2,1.2,0,0,1-1.21-1.19V37.47A1.2,1.2,0,0,1,150.35,36.28Z"/><path class="cls-1" d="M164.93,40.43h11.53a1.19,1.19,0,0,1,1.2,1.18v1.78a1.19,1.19,0,0,1-1.2,1.18H164.93a1.19,1.19,0,0,1-1.2-1.18V41.61A1.19,1.19,0,0,1,164.93,40.43Z"/><path class="cls-1" d="M181.13,38.36h11.53a1.19,1.19,0,0,1,1.2,1.18v1.78a1.19,1.19,0,0,1-1.2,1.18H181.13a1.19,1.19,0,0,1-1.2-1.18V39.54A1.19,1.19,0,0,1,181.13,38.36Z"/><path class="cls-1" d="M195.72,42.5h11.52a1.2,1.2,0,0,1,1.21,1.19v1.77a1.2,1.2,0,0,1-1.21,1.19H195.72a1.2,1.2,0,0,1-1.21-1.19V43.69A1.2,1.2,0,0,1,195.72,42.5Z"/><path class="cls-1" d="M210.3,46.65h11.53a1.19,1.19,0,0,1,1.2,1.18v1.78a1.19,1.19,0,0,1-1.2,1.18H210.3a1.2,1.2,0,0,1-1.21-1.18V47.83A1.2,1.2,0,0,1,210.3,46.65Z"/><path class="cls-1" d="M181.13,32.14h11.53a1.19,1.19,0,0,1,1.2,1.18V35.1a1.19,1.19,0,0,1-1.2,1.18H181.13a1.19,1.19,0,0,1-1.2-1.18V33.32A1.19,1.19,0,0,1,181.13,32.14Z"/><path class="cls-1" d="M195.72,36.28h11.52a1.2,1.2,0,0,1,1.21,1.19v1.77a1.2,1.2,0,0,1-1.21,1.19H195.72a1.2,1.2,0,0,1-1.21-1.19V37.47A1.2,1.2,0,0,1,195.72,36.28Z"/><path class="cls-1" d="M210.3,40.43h11.53a1.19,1.19,0,0,1,1.2,1.18v1.78a1.19,1.19,0,0,1-1.2,1.18H210.3a1.2,1.2,0,0,1-1.21-1.18V41.61A1.2,1.2,0,0,1,210.3,40.43Z"/><path class="cls-1" d="M164.93,32.14h11.53a1.19,1.19,0,0,1,1.2,1.18V35.1a1.19,1.19,0,0,1-1.2,1.18H164.93a1.19,1.19,0,0,1-1.2-1.18V33.32A1.19,1.19,0,0,1,164.93,32.14Z"/><path class="cls-1" d="M210.3,32.14h11.53a1.19,1.19,0,0,1,1.2,1.18V35.1a1.19,1.19,0,0,1-1.2,1.18H210.3a1.2,1.2,0,0,1-1.21-1.18V33.32A1.2,1.2,0,0,1,210.3,32.14Z"/><path class="cls-1" d="M135.77,106h11.52a1.2,1.2,0,0,1,1.21,1.18v1.78a1.2,1.2,0,0,1-1.21,1.18H135.77a1.2,1.2,0,0,1-1.21-1.18v-1.78A1.2,1.2,0,0,1,135.77,106Z"/><path class="cls-1" d="M150.35,110.11h11.52a1.2,1.2,0,0,1,1.21,1.19v1.77a1.2,1.2,0,0,1-1.21,1.19H150.35a1.2,1.2,0,0,1-1.21-1.19V111.3A1.2,1.2,0,0,1,150.35,110.11Z"/><path class="cls-1" d="M181.13,111h11.53a1.19,1.19,0,0,1,1.2,1.18v1.78a1.19,1.19,0,0,1-1.2,1.18H181.13a1.19,1.19,0,0,1-1.2-1.18v-1.78A1.19,1.19,0,0,1,181.13,111Z"/><path class="cls-1" d="M181.13,104.74h11.53a1.19,1.19,0,0,1,1.2,1.18v1.78a1.19,1.19,0,0,1-1.2,1.18H181.13a1.19,1.19,0,0,1-1.2-1.18v-1.78A1.19,1.19,0,0,1,181.13,104.74Z"/><path class="cls-1" d="M195.72,108.88h11.52a1.2,1.2,0,0,1,1.21,1.19v1.78a1.2,1.2,0,0,1-1.21,1.18H195.72a1.2,1.2,0,0,1-1.21-1.18v-1.78A1.2,1.2,0,0,1,195.72,108.88Z"/><path class="cls-1" d="M135.77,97.67h11.52a1.2,1.2,0,0,1,1.21,1.19v1.77a1.2,1.2,0,0,1-1.21,1.19H135.77a1.2,1.2,0,0,1-1.21-1.19V98.86A1.2,1.2,0,0,1,135.77,97.67Z"/><path class="cls-1" d="M150.35,101.82h11.52a1.2,1.2,0,0,1,1.21,1.18v1.78a1.2,1.2,0,0,1-1.21,1.19H150.35a1.2,1.2,0,0,1-1.21-1.19V103A1.2,1.2,0,0,1,150.35,101.82Z"/><path class="cls-1" d="M164.93,106h11.53a1.19,1.19,0,0,1,1.2,1.18v1.78a1.19,1.19,0,0,1-1.2,1.18H164.93a1.19,1.19,0,0,1-1.2-1.18v-1.78A1.19,1.19,0,0,1,164.93,106Z"/><path class="cls-1" d="M135.77,91.45h11.52a1.2,1.2,0,0,1,1.21,1.19v1.78a1.2,1.2,0,0,1-1.21,1.18H135.77a1.2,1.2,0,0,1-1.21-1.18V92.64A1.2,1.2,0,0,1,135.77,91.45Z"/><path class="cls-1" d="M150.35,95.6h11.52a1.2,1.2,0,0,1,1.21,1.19v1.77a1.2,1.2,0,0,1-1.21,1.19H150.35a1.2,1.2,0,0,1-1.21-1.19V96.79A1.2,1.2,0,0,1,150.35,95.6Z"/><path class="cls-1" d="M164.93,99.75h11.53a1.19,1.19,0,0,1,1.2,1.18v1.78a1.19,1.19,0,0,1-1.2,1.18H164.93a1.19,1.19,0,0,1-1.2-1.18v-1.78A1.19,1.19,0,0,1,164.93,99.75Z"/><path class="cls-1" d="M181.13,97.67h11.53a1.19,1.19,0,0,1,1.2,1.19v1.77a1.19,1.19,0,0,1-1.2,1.19H181.13a1.19,1.19,0,0,1-1.2-1.19V98.86A1.19,1.19,0,0,1,181.13,97.67Z"/><path class="cls-1" d="M195.72,101.82h11.52a1.2,1.2,0,0,1,1.21,1.18v1.78a1.2,1.2,0,0,1-1.21,1.19H195.72a1.2,1.2,0,0,1-1.21-1.19V103A1.2,1.2,0,0,1,195.72,101.82Z"/><path class="cls-1" d="M210.3,106h11.53a1.19,1.19,0,0,1,1.2,1.18v1.78a1.19,1.19,0,0,1-1.2,1.18H210.3a1.2,1.2,0,0,1-1.21-1.18v-1.78A1.2,1.2,0,0,1,210.3,106Z"/><path class="cls-1" d="M181.13,91.45h11.53a1.2,1.2,0,0,1,1.2,1.19v1.78a1.19,1.19,0,0,1-1.2,1.18H181.13a1.19,1.19,0,0,1-1.2-1.18V92.64A1.2,1.2,0,0,1,181.13,91.45Z"/><path class="cls-1" d="M195.72,95.6h11.52a1.2,1.2,0,0,1,1.21,1.19v1.77a1.2,1.2,0,0,1-1.21,1.19H195.72a1.2,1.2,0,0,1-1.21-1.19V96.79A1.2,1.2,0,0,1,195.72,95.6Z"/><path class="cls-1" d="M210.3,99.75h11.53a1.19,1.19,0,0,1,1.2,1.18v1.78a1.19,1.19,0,0,1-1.2,1.18H210.3a1.2,1.2,0,0,1-1.21-1.18v-1.78A1.2,1.2,0,0,1,210.3,99.75Z"/><ellipse class="cls-1" cx="181.31" cy="122.7" rx="71.05" ry="5.74"/><path class="cls-2" d="M116.86,47.41a26.25,26.25,0,0,1,10.55,8.77A26.72,26.72,0,0,1,113.7,54.6a26.16,26.16,0,0,1-10.55-8.77A26.72,26.72,0,0,1,116.86,47.41Z"/><path class="cls-2" d="M137.43,36.44A14.22,14.22,0,0,1,143,31.5a14,14,0,0,1-1.91,7.16,14.27,14.27,0,0,1-5.6,4.93A13.86,13.86,0,0,1,137.43,36.44Z"/><path class="cls-3" d="M122.19,40a19.51,19.51,0,0,0,5.57,8.64,19.28,19.28,0,0,0,.2-10.23,19.45,19.45,0,0,0-5.57-8.63A19.25,19.25,0,0,0,122.19,40Z"/><path class="cls-4" d="M123.58,39.79H239.36a1.16,1.16,0,0,1,1.17,1.15v55.9A1.15,1.15,0,0,1,239.36,98H123.58a1.15,1.15,0,0,1-1.17-1.15V40.94A1.16,1.16,0,0,1,123.58,39.79Z"/><path class="cls-5" d="M122.41,94.48H240.53v2.36A1.15,1.15,0,0,1,239.36,98H123.58a1.15,1.15,0,0,1-1.17-1.15V94.48Z"/><path class="cls-2" d="M134.32,90.18h7.94a.4.4,0,0,1,.4.4v3.51a.39.39,0,0,1-.4.39h-7.94a.4.4,0,0,1-.41-.39V90.58A.4.4,0,0,1,134.32,90.18Z"/><path class="cls-2" d="M145.42,93.85h5.34a.32.32,0,0,1,.33.32h0a.32.32,0,0,1-.33.31h-5.34a.32.32,0,0,1-.33-.31h0A.32.32,0,0,1,145.42,93.85Z"/><path class="cls-2" d="M139.77,51.17c4.28.78,8.64,0,12.9-.52l12.94-1.6c.52-.06,1.28-.37,1.59.26a4.77,4.77,0,0,1,.07,1.52c0,1.12,0,2.23,0,3.35-.06,2.13-.22,4.26-.42,6.38-.39,4.16-.95,8.3-1.23,12.47-.14,2.12-.21,4.25-.15,6.38,0,.5,0,1,.07,1.52s.29,1.4-.34,1.78a4.51,4.51,0,0,1-1.47.27c-.65.1-1.3.18-2,.25a125.21,125.21,0,0,1-13.14.22l-13.21-.07H132.2c-.29,0-1.34.17-1.52-.17a3.08,3.08,0,0,1,.16-1c0-.3.1-.6.16-.9.38-2.09.82-4.18,1.27-6.26a110.27,110.27,0,0,0,2.34-13.51c.19-2.29.06-4.6.3-6.88.12-1.06.25-3.43,1.68-3.52,1.22-.08,2.47,0,3.69,0a.24.24,0,1,0,0-.48c-1.15,0-2.3,0-3.46,0a1.64,1.64,0,0,0-1.66.89c-.93,1.77-.83,4.14-.86,6.08a73,73,0,0,1-1.74,13.72c-.47,2.29-1,4.57-1.46,6.85-.22,1.1-.43,2.19-.63,3.29-.09.52-.54,1.68-.14,2.16s1.64.22,2.2.22l3.87,0,7.4,0c4.79,0,9.59.16,14.38,0a34.13,34.13,0,0,0,6.92-.7,1.11,1.11,0,0,0,1-1.16c0-1.07-.14-2.19-.16-3.27-.17-9.26,2.05-18.4,1.82-27.67,0-.63.23-2.21-.47-2.59a1.74,1.74,0,0,0-1.06,0l-1.89.23-8.21,1c-2.62.31-5.24.66-7.87.95a28.29,28.29,0,0,1-8.37,0c-.3,0-.43.41-.12.46Z"/><path class="cls-2" d="M134.61,56.81,167,55.25c.31,0,.31-.5,0-.48l-32.38,1.56C134.3,56.35,134.3,56.82,134.61,56.81Z"/><path class="cls-2" d="M144.59,52.87a.77.77,0,0,0,0,1.12.67.67,0,0,0,.25.16,2.18,2.18,0,0,0,1.38-.07c.65-.16,1.3-.3,2-.42a26.72,26.72,0,0,1,4.38-.4c.68,0,1.34,0,2,.05a2.16,2.16,0,0,0,1.42-.24.9.9,0,0,0,.17-1.41c-.65-.58-2-.24-2.8-.18a65,65,0,0,0-8.08,1.18c-.3.07-.17.53.13.46q2.64-.55,5.32-.9c.87-.1,1.75-.19,2.63-.26.42,0,.83-.07,1.25-.09a4.1,4.1,0,0,1,.5,0c.51,0,.57-.08.26.53s-.19.47-.66.46l-.6,0c-.41,0-.83,0-1.24,0-.87,0-1.75,0-2.62.12s-1.47.17-2.21.3c-.45.08-.91.17-1.36.27l-.6.15-.29.07q-.53.18-.9-.48c.22-.22-.13-.56-.35-.34Z"/><path class="cls-2" d="M150.45,59.67A7.86,7.86,0,0,0,144,62.06c-1.21,1.46-1.89,4-.61,5.58s4.39,1.45,6.21.7,4-2.44,4.61-4.5c.72-2.57-1.62-4.51-4.06-4.54a.24.24,0,0,0,0,.48,3.72,3.72,0,0,1,3.4,1.88,3.48,3.48,0,0,1-.81,3.83,8.06,8.06,0,0,1-6,3c-1.38,0-2.92-.49-3.35-1.93a4.38,4.38,0,0,1,.54-3.47c1.33-2.23,4-3,6.52-2.89a.24.24,0,1,0,0-.48Z"/><path class="cls-2" d="M148.13,63.21a.66.66,0,0,0-.82.37.63.63,0,0,0,0,.27c.05.62.74.8,1.27.76s1-.2.82-.76a.74.74,0,0,0-.4-.45,1,1,0,0,0-.45,0c-.06,0-.61.2-.38,0l-.38-.05a.37.37,0,0,1,.11.32.24.24,0,0,0,.25.23l.12,0a.33.33,0,0,1,.42.17.38.38,0,0,1,0,.21.24.24,0,0,0,.44.18c.16-.28.36-.86.12-1.16a.53.53,0,0,0-.67,0,3,3,0,0,0-.34.28c-.19.17-.32.25-.25-.07a2.08,2.08,0,0,1,1.23-1.31l-.36-.27a5,5,0,0,1-1,1.89l.42.17a1.06,1.06,0,0,1,.66-1h-.24l.12.21c0,.3.43.43.47.12s-.19-.9-.66-.71a1.48,1.48,0,0,0-.83,1.42c0,.19.27.34.41.17a5.67,5.67,0,0,0,1.11-2.1.25.25,0,0,0-.19-.3.25.25,0,0,0-.17,0,2.58,2.58,0,0,0-1.18,1c-.2.32-.45.81-.25,1.18a.51.51,0,0,0,.7.2h0a2.08,2.08,0,0,0,.4-.32c.06,0,.13-.14.21-.16s.07,0,0,.08a.86.86,0,0,1-.14.47l.44.18a.79.79,0,0,0-.57-1,.83.83,0,0,0-.58.06l.37.21a.89.89,0,0,0-.19-.57.25.25,0,0,0-.34-.08l0,0a.63.63,0,0,0,0,.93c.23.17.34,0,.6,0,.86-.11.36.27.05.29a1.35,1.35,0,0,1-.4,0c-.34-.12-.36-.26-.07-.44.29.12.42-.34.13-.46Z"/><path class="cls-2" d="M147.74,64.09c.2.64-.63.85-1,1.07a2.24,2.24,0,0,0-.7.6,4.67,4.67,0,0,0-.7,1.87c-.06.3.41.43.47.13a5.93,5.93,0,0,1,.41-1.38,2.46,2.46,0,0,1,1.26-1c.54-.3.94-.75.74-1.37-.09-.29-.56-.17-.46.13Z"/><path class="cls-2" d="M148.55,63.77a.47.47,0,0,0-.41.48c0,.19.13.31.22.46a4.15,4.15,0,0,1,.47,1,2.23,2.23,0,0,1,0,1.28c-.34.59-.94.48-1.46.48s-.86.16-.85-.51a2.16,2.16,0,0,1,.49-1l-.44,0a8,8,0,0,1,.14,1.47c0,.22.35.35.46.12a9.12,9.12,0,0,0,.61-1.68l-.47-.06.08,1.21a.24.24,0,0,0,.25.23.23.23,0,0,0,.2-.11.48.48,0,0,0,.12-.22c0-.07-.13-.58-.19-.4l.48.07,0-1.15-.48.06a2.47,2.47,0,0,1,.09,1c0,.26.42.32.48.06l.31-1.55-.45.06a1,1,0,0,1,.09.69c0,.3.45.3.48,0a1.66,1.66,0,0,0-.15-.93.23.23,0,0,0-.33-.08.23.23,0,0,0-.11.13l-.31,1.55.48.07a2.6,2.6,0,0,0-.11-1.14.25.25,0,0,0-.3-.16.24.24,0,0,0-.17.23l0,1.15a.25.25,0,0,0,.48.06l0-.08a.22.22,0,0,0-.06-.23c-.5-.54-.6.32-.78.56l.46.12-.09-1.21a.25.25,0,0,0-.48-.07,7.93,7.93,0,0,1-.56,1.57l.45.12a8.59,8.59,0,0,0-.16-1.6c0-.22-.34-.21-.45-.06-.32.46-.88,1.46-.45,2s1.57.3,2.07.27c.81,0,1.1-.55,1.18-1.29a3.2,3.2,0,0,0-.06-1.07c0-.18-.48-1.38-.62-1.35.31-.06.18-.52-.13-.47Z"/><path class="cls-2" d="M147.6,64.84l-1.32,1.73.42.24,1-1.39-.44-.18-.49,1.82a.24.24,0,0,0,.44.18,8.36,8.36,0,0,1,.75-1l-.41-.24a2.58,2.58,0,0,1-.61,1.11l.41.23a2.09,2.09,0,0,1,.17-.64c.13-.27-.27-.52-.42-.24a4.76,4.76,0,0,1-.47.73l.45,0,.1-.45-.45-.06.08.4a.25.25,0,0,0,.3.17l.1-.06a4.73,4.73,0,0,0,1-1.45h-.41a2.11,2.11,0,0,1,.22.64c.06.29.45.18.48-.06a12.56,12.56,0,0,0,.11-1.61h-.49v1c0,.26.43.34.48.06a1.68,1.68,0,0,1,.24-.68h-.43a1,1,0,0,1,.16.54.25.25,0,0,0,.49,0l.06-.32h-.47c0,.28.23,1.87-.41,1.69-.1,0-.13,0-.09,0l.15-.3.34-.71-.46-.12A1.73,1.73,0,0,1,148,67a.85.85,0,0,1-.91.19,1.63,1.63,0,0,1-.43-.44l-.33.32c.27.19.7.66,1.05.69a.9.9,0,0,0,.66-.37,2.73,2.73,0,0,0,.79-2,.24.24,0,0,0-.48,0v.54a.24.24,0,0,0,.48,0V64.55a.24.24,0,0,0-.48,0,5,5,0,0,1-.09,1l.48.07a11.06,11.06,0,0,1-.05-1.15.25.25,0,0,0-.25-.24.26.26,0,0,0-.23.18c-.07.3-.16.6-.25.9l.45-.06,0-.13c0-.3-.51-.3-.48,0a.79.79,0,0,0,.1.37c.09.2.38.13.44,0s.18-.6.25-.91l-.48-.06c0,.38,0,.77,0,1.15s.43.35.48.06a5.67,5.67,0,0,0,.1-1.09h-.48v1.34h.48v-.55h-.48a2.31,2.31,0,0,1-.59,1.64l-.21.2c-.11.11-.22.09-.31,0a3.91,3.91,0,0,1-.67-.48c-.2-.14-.48.14-.33.33.37.49.92,1,1.62.8s.82-1.23.77-1.87c0-.21-.34-.35-.45-.11s-.33.67-.49,1a1,1,0,0,0-.15.43c.06.35.5.3.77.27,1.06-.07.89-1.55.77-2.29,0-.24-.41-.2-.47,0a1.44,1.44,0,0,0-.08.46H149a2,2,0,0,0-.23-.79.25.25,0,0,0-.34-.08.3.3,0,0,0-.08.08,2.34,2.34,0,0,0-.29.8l.49.07v-1a.25.25,0,0,0-.49,0,12.32,12.32,0,0,1-.11,1.61l.48-.06a2.62,2.62,0,0,0-.28-.75.24.24,0,0,0-.33-.08.24.24,0,0,0-.09.08,4.34,4.34,0,0,1-.89,1.35l.4.1-.07-.39c0-.22-.34-.22-.44-.06a1,1,0,0,0-.15.82c0,.23.33.2.45.06a5.48,5.48,0,0,0,.46-.72l-.42-.25a2.81,2.81,0,0,0-.22.75c0,.22.22.44.4.24a3.15,3.15,0,0,0,.74-1.32.24.24,0,0,0-.41-.23,9.85,9.85,0,0,0-.81,1.11l.45.19.49-1.81a.24.24,0,0,0-.18-.29.24.24,0,0,0-.26.1l-1,1.39c-.19.25.23.47.42.24L148,65.09c.19-.25-.24-.48-.42-.25Z"/><path class="cls-2" d="M168.28,70.6a41.72,41.72,0,0,0,5.2-4.38q2.81-2.37,5.84-4.45c3.91-2.72,8-5.14,12.12-7.56a.24.24,0,0,0,.08-.33.24.24,0,0,0-.32-.08c-4.11,2.42-8.22,4.84-12.13,7.55-1.84,1.28-3.65,2.63-5.37,4.07-1.88,1.56-3.56,3.5-5.67,4.76a.24.24,0,0,0,.24.42Z"/><path class="cls-2" d="M197.72,46.78c-2.11.21-4.38.74-5.68,2.55a5.72,5.72,0,0,0,0,5.88c1.2,1.82,3.64,1.89,5.53,1.3s3.86-1.62,3.84-3.85a9.25,9.25,0,0,0-.93-3.52,2.33,2.33,0,0,0-2.28-1.65c-.31,0-.31.5,0,.47,1.5-.13,2,1.62,2.34,2.73a4.51,4.51,0,0,1,.11,3.29,4.66,4.66,0,0,1-2.78,1.93,6,6,0,0,1-3.56.32c-2.35-.65-3-3.57-2.32-5.65.78-2.39,3.53-3.1,5.77-3.32.31,0,.31-.51,0-.48Z"/><path class="cls-2" d="M201,65.28c-2.11.21-4.38.74-5.67,2.55a5.72,5.72,0,0,0,0,5.88c1.2,1.82,3.64,1.89,5.53,1.3s3.86-1.62,3.84-3.85a9.3,9.3,0,0,0-.93-3.53A2.35,2.35,0,0,0,201.4,66c-.31,0-.31.51,0,.48,1.5-.14,2,1.62,2.34,2.73a4.51,4.51,0,0,1,.11,3.29,4.7,4.7,0,0,1-2.78,1.93,5.88,5.88,0,0,1-3.56.31c-2.35-.64-3-3.57-2.32-5.64.78-2.4,3.53-3.1,5.77-3.32.31,0,.32-.51,0-.48Z"/><path class="cls-2" d="M194.54,51.44l1.53,1.72a.26.26,0,0,0,.35,0,.27.27,0,0,0,.06-.1,9.4,9.4,0,0,0,.34-2.59,8.35,8.35,0,0,1,.68-2.65,9,9,0,0,1,3.63-4.09.24.24,0,0,0-.24-.41,9.41,9.41,0,0,0-3.67,4,9.18,9.18,0,0,0-.81,2.54,14.17,14.17,0,0,1-.4,3.11l.4-.11-1.52-1.72c-.21-.23-.55.11-.35.34Z"/><path class="cls-2" d="M169.06,72.46q12.54-.37,25.08-.16a.24.24,0,0,0,0-.48q-12.54-.21-25.08.16C168.75,72,168.74,72.47,169.06,72.46Z"/><path class="cls-2" d="M195.88,67.74a51.36,51.36,0,0,1,8.21,4.06.24.24,0,0,0,.25-.41A51.05,51.05,0,0,0,196,67.28c-.29-.11-.42.35-.13.46Z"/><path class="cls-2" d="M201.07,65.58a19.39,19.39,0,0,0-4.76,11.88c0,.31.47.31.48,0a18.86,18.86,0,0,1,4.63-11.54c.2-.24-.14-.58-.35-.34Z"/><path class="cls-2" d="M136.27,70.73l18.11-.24,2.08,0,1.12,0a.89.89,0,0,1,.88,1c0,1.11-.74,1.07-1.67,1.11l-2.26.1-9.16.4c-1.64.07-3.28.16-4.93.22-1.48,0-4.29-.43-3.63-2.55a.24.24,0,0,0-.47-.13,2.34,2.34,0,0,0,1.17,2.65c1.31.77,3,.51,4.48.44l11.25-.5L156,73a6.15,6.15,0,0,0,2.31-.21,1.93,1.93,0,0,0,.42-2.49,1.13,1.13,0,0,0-1-.36c-1,0-2,0-3,0l-5.61.07-12.82.16a.24.24,0,0,0,0,.48Z"/><g id="b30eccf6-7cfe-48df-9caa-415a128bd568"><path class="cls-6" d="M209.44,120.53c-.41.25-.88.39-1.3.61a1.79,1.79,0,0,0-.95,1,.64.64,0,0,0,0,.43.91.91,0,0,0,.46.36,7,7,0,0,0,5.44.06,6.79,6.79,0,0,1,.94-.37,6.13,6.13,0,0,1,1.21-.12,10.85,10.85,0,0,0,1.26-.16,1.08,1.08,0,0,0,.57-.24,1,1,0,0,0,.26-.6,5,5,0,0,0-.81-3.56,1.37,1.37,0,0,0-.35-.37,1.4,1.4,0,0,0-.56-.14c-.81-.1-1.66-.28-2.48-.3a1.68,1.68,0,0,0-1.3.66C211,118.65,210.49,119.88,209.44,120.53Z"/><path class="cls-6" d="M221.38,120.41a3.54,3.54,0,0,0,.58,2.23,3,3,0,0,0,.78.68,3.6,3.6,0,0,0,3.44.33,1,1,0,0,0,.43-.35,1.2,1.2,0,0,0,0-.93l-1.55-5.3a11.24,11.24,0,0,0-3.37.76C221,118.2,221.38,119.71,221.38,120.41Z"/><path class="cls-7" d="M208.53,87.81c-.1.29-.44.43-.62.68a1.23,1.23,0,0,0-.12,1,2.77,2.77,0,0,0,.71,1.38,1.69,1.69,0,0,0,1.46.49,1.21,1.21,0,0,0,1-1.07,2,2,0,0,0-.15-.69l-1.11-3.15a.14.14,0,0,0-.07-.1.19.19,0,0,0-.13,0c-.26.12-.78.25-.93.51S208.64,87.52,208.53,87.81Z"/><path class="cls-6" d="M208,87.65a5.48,5.48,0,0,0,1.14-.44,1.14,1.14,0,0,1,1.16,0c.09.07.18.17.3.17a10.73,10.73,0,0,0-.73-2.27.24.24,0,0,0-.06-.09.33.33,0,0,0-.14,0l-1.09.28c-.4.11-.45.08-.42.47C208.18,86,208.27,87.65,208,87.65Z"/><path class="cls-8" d="M207.89,65a1.49,1.49,0,0,0-.16.84A27.2,27.2,0,0,0,208,70c0,.33.11.66.14,1a9.62,9.62,0,0,1,0,1.42L208,78.58a3.5,3.5,0,0,1-.53,2.14,1.05,1.05,0,0,0-.19.69c.13,1.54.39,3.06.64,4.59a2.92,2.92,0,0,1,2.62.12,27.7,27.7,0,0,0,1.34-7.81A29.94,29.94,0,0,1,212,74.4a24.65,24.65,0,0,0-.05-6.59,3.63,3.63,0,0,0-.7-1.94,3,3,0,0,0-1.62-.92A7.48,7.48,0,0,0,207.89,65Z"/><path class="cls-5" d="M207.89,65a1.49,1.49,0,0,0-.16.84A27.2,27.2,0,0,0,208,70c0,.33.11.66.14,1a9.62,9.62,0,0,1,0,1.42L208,78.58a3.5,3.5,0,0,1-.53,2.14,1.05,1.05,0,0,0-.19.69c.13,1.54.39,3.06.64,4.59a2.92,2.92,0,0,1,2.62.12,27.7,27.7,0,0,0,1.34-7.81A29.94,29.94,0,0,1,212,74.4a24.65,24.65,0,0,0-.05-6.59,3.63,3.63,0,0,0-.7-1.94,3,3,0,0,0-1.62-.92A7.48,7.48,0,0,0,207.89,65Z"/><path class="cls-9" d="M209.87,82.75a27.69,27.69,0,0,0,1.71,16.3,4.39,4.39,0,0,1,.39,1.21,6.2,6.2,0,0,1-.49,2.29,12.06,12.06,0,0,0,.11,5.31c.13.73.26,1.46.4,2.19a3.39,3.39,0,0,1-.07,2.14c.29,1.19.46,2.37.75,3.56a.7.7,0,0,1,0,.29.83.83,0,0,1-.3.39,1.73,1.73,0,0,0-.45,1.67,2.82,2.82,0,0,1,2.62,0,7.15,7.15,0,0,0,2.59.8,6.44,6.44,0,0,1,.13-3.15,4.83,4.83,0,0,0,.63-1.73,13,13,0,0,0-.44-1.59,3.79,3.79,0,0,1,0-1,25.08,25.08,0,0,0-.27-5.87,3.3,3.3,0,0,0-.28-1.12,1.73,1.73,0,0,1-.28-.71c0-.3.24-.54.33-.82.17-.52-.13-1.24.32-1.56,1.18-.85.73-2.9.7-4.34,0-1.24-.07-2.49-.16-3.73a15.64,15.64,0,0,1,.89,6.43,4.62,4.62,0,0,0,.14,2.13,8.12,8.12,0,0,1,.76,1.46,5.69,5.69,0,0,1,0,1,1,1,0,0,0,.43.88c0,1.54.16,3.18.19,4.72a11.49,11.49,0,0,0,.19,2.34,3.26,3.26,0,0,1,.12.76,3.37,3.37,0,0,1-.25.93,5.25,5.25,0,0,0,.81,4.92,2.41,2.41,0,0,1,2-1.08,7.2,7.2,0,0,1,2.3.33,4.43,4.43,0,0,1,.54-2.69,2.34,2.34,0,0,0,.28-.6,2.58,2.58,0,0,0-.22-1.21,6,6,0,0,1-.08-2,31.18,31.18,0,0,0-.3-6.69,5.13,5.13,0,0,0-.31-1.27c-.06-.15-.13-.29-.18-.44a3.69,3.69,0,0,1-.13-.82l-.18-2.55a17.56,17.56,0,0,1,.88-5.29c.19-.79.39-1.56.51-2.36.17-1.08.2-2.19.45-3.25a20.73,20.73,0,0,0,.71-2.87,9.13,9.13,0,0,0-1.13-4.38c-.26-.58-1.24-.52-1.87-.62A25.8,25.8,0,0,0,211,82,3.35,3.35,0,0,0,209.87,82.75Z"/><path class="cls-7" d="M213.09,54.45l.5,1.9a5,5,0,0,1,.22,1.34.92.92,0,0,1-.11.48,1.26,1.26,0,0,1-.3.31c-.34.25-.58.84-1,1,.2.34.48.12.84.29a9.09,9.09,0,0,0,1.9.88,4.26,4.26,0,0,0,2-.16,6.88,6.88,0,0,0,2.55-1.16,2.38,2.38,0,0,0,1.15-2c-.81.09-1.53-.71-1.89-1.44a4.1,4.1,0,0,1-.27-.86l-.43-1.88a10.39,10.39,0,0,0-1.31.61,4.59,4.59,0,0,1-1.49.21,16.85,16.85,0,0,0-2.65.34c-.12,0-.27.1-.24.22"/><path class="cls-5" d="M213.09,54.45l.5,1.9a5,5,0,0,1,.22,1.34.92.92,0,0,1-.11.48,1.26,1.26,0,0,1-.3.31c-.34.25-.58.84-1,1,.2.34.48.12.84.29a9.09,9.09,0,0,0,1.9.88,4.26,4.26,0,0,0,2-.16,6.88,6.88,0,0,0,2.55-1.16,2.38,2.38,0,0,0,1.15-2c-.81.09-1.53-.71-1.89-1.44a4.1,4.1,0,0,1-.27-.86l-.43-1.88a10.39,10.39,0,0,0-1.31.61,4.59,4.59,0,0,1-1.49.21,16.85,16.85,0,0,0-2.65.34c-.12,0-.27.1-.24.22"/><ellipse class="cls-7" cx="215.22" cy="51.27" rx="4.29" ry="4.22"/><path class="cls-6" d="M216.4,58.23a3.77,3.77,0,0,1,1-1.27c.6-.52,1.43-1,1.57-1.72l1.31,1.5a.51.51,0,0,1,0,.74A5.38,5.38,0,0,1,219,58.72a37.86,37.86,0,0,0-3.17,2.75.45.45,0,0,1-.17.11.35.35,0,0,1-.18,0,7.26,7.26,0,0,1-2.26-1.82c0-.05-.11-.12-.19-.11l-.12.06a2.22,2.22,0,0,1-1.47.72,3.39,3.39,0,0,0,1.29-2.23,4.44,4.44,0,0,1,.18-.88.93.93,0,0,1,.63-.59,1.39,1.39,0,0,0,.37,1.72,3.64,3.64,0,0,0,1.61.76C216.05,59.26,216.21,58.65,216.4,58.23Z"/><path class="cls-6" d="M210.82,83.18c.61.15,1.19.41,1.78.59a8.84,8.84,0,0,0,3.35.35,1.83,1.83,0,0,0,1-.31l.23-.19a1.67,1.67,0,0,1,.44-.17A12.48,12.48,0,0,0,221.52,81s.09-.07.08-.13a.14.14,0,0,0,0-.09l-.63-.71a27.57,27.57,0,0,1-5.06.13,6,6,0,0,0-1,0,8.4,8.4,0,0,0-1,.19c-1.24.26-2.52.37-3.79.54a.57.57,0,0,0-.25.08.47.47,0,0,0-.13.15l-.45.61a1.89,1.89,0,0,0-.37.7c-.1.48.11.64.53.58A4,4,0,0,1,210.82,83.18Z"/><path class="cls-8" d="M215.79,60.74a8,8,0,0,0-1.67-1.28,2.37,2.37,0,0,0-.81-.32,1,1,0,0,0-.83.2c-.15.13-.24.3-.38.43a1.63,1.63,0,0,1-.59.33,11.13,11.13,0,0,0-2.08,1.17,4.08,4.08,0,0,0-1.77,4.22c0,.81.81,1.42,1.36,2a16.34,16.34,0,0,1,1.39,1.91,2.6,2.6,0,0,1,.56,1.51c0,.45-.3.87-.25,1.31,0,.16.06.31.08.46a5.27,5.27,0,0,1-.13,1,10.53,10.53,0,0,0,.11,1.36,4.73,4.73,0,0,1-.12.92,17,17,0,0,0-.62,4.41l-.9.16a.73.73,0,0,1,0,1,.62.62,0,0,1-.18.14,14,14,0,0,0,4.4.23c1.23,0,2.45.16,3.68.13a6.45,6.45,0,0,0,3.51-.92c.28-.19.53-.4.82-.56a3.92,3.92,0,0,1,1.24-.4,13.15,13.15,0,0,1,2.43-.22,1.87,1.87,0,0,0,1.15-.22,1.56,1.56,0,0,0,.48-1.16c0-.45.08-.91.09-1.36a6.22,6.22,0,0,0-.06-1.06,6.49,6.49,0,0,0-.19-.76l-.61-2.12a7.75,7.75,0,0,1,.18-2.74.7.7,0,0,0-.15-.6c-.06,0-.14-.08-.16-.15a.24.24,0,0,1,0-.22,11.33,11.33,0,0,1,1.25-1.77,34,34,0,0,0,2.07-3.14,10,10,0,0,0-2.74-6,3,3,0,0,0-1.15-.84,4,4,0,0,0-.91-.14,8.57,8.57,0,0,1-3.7-.79.81.81,0,0,0-.27-.11c-.24,0-.42.21-.58.4a7.2,7.2,0,0,1-1.54,1.11A10.72,10.72,0,0,0,215.79,60.74Z"/><path class="cls-8" d="M229.25,65.32a11.83,11.83,0,0,1,.32,2.45,8.08,8.08,0,0,0,.26,1.47,2.25,2.25,0,0,0,.31.75,3.92,3.92,0,0,1,.45.62,1.38,1.38,0,0,1,.06.49l0,1.1a4,4,0,0,1-.26,1.72l-.7,2.09a12.73,12.73,0,0,1-1.45,3.26.91.91,0,0,1-.41.39,2,2,0,0,1-.42.06,1.07,1.07,0,0,0-.89,1,2.63,2.63,0,0,0-.6-.6L224.52,79a6,6,0,0,0-1.58-1,4.23,4.23,0,0,0,3-3.55,1.71,1.71,0,0,1,.16-.7c.12-.19.34-.33.36-.55s-.31-.49-.31-.77.14-.34.2-.51a1.23,1.23,0,0,0,0-.66l-.19-1.07a.87.87,0,0,0-.1-.31,1.88,1.88,0,0,0-.24-.25c-.34-.37-.19-1,0-1.41a13.55,13.55,0,0,1,1.65-2.86,9.82,9.82,0,0,0,.66-.93c.18-.29.21-.7.4-1C228.74,64.11,229.06,64.7,229.25,65.32Z"/><path class="cls-6" d="M222.89,78.09a.85.85,0,0,0-.19.19,1.59,1.59,0,0,1-.73.52l.46.34a20.15,20.15,0,0,1,3.08,2.9c.1-.36.71-.33.86-.67a.66.66,0,0,0,0-.31,9.64,9.64,0,0,0-.23-1.6,1.71,1.71,0,0,0-.33-.74,1.91,1.91,0,0,0-.91-.51A3,3,0,0,0,222.89,78.09Z"/><path class="cls-7" d="M220.86,79.35a9.23,9.23,0,0,1-1.46,1,5.42,5.42,0,0,0-1.16.5,1.16,1.16,0,0,0,1.1.59,2.7,2.7,0,0,0,1.23-.45c.29-.17.64-.38,1-.25,0,.24-.16.47-.16.71a.7.7,0,0,0,.41.55,5.61,5.61,0,0,0,3.38.5.33.33,0,0,0,.19-.06.3.3,0,0,0,.07-.21c0-.25,0-.5,0-.75a1.09,1.09,0,0,0-.47-1.07,14.06,14.06,0,0,0-2-1.41A1.85,1.85,0,0,0,220.86,79.35Z"/><path class="cls-9" d="M216.73,49.51a1.11,1.11,0,1,0,1.43.93A1.21,1.21,0,0,0,216.73,49.51Zm.24,2a.94.94,0,1,1,1-1,1,1,0,0,1-1,1Z"/><path class="cls-9" d="M213.22,49.92a1.11,1.11,0,1,0,1.44.93A1.23,1.23,0,0,0,213.22,49.92Zm.25,2a1,1,0,0,1-1.22-.78,1.13,1.13,0,1,1,1.22.78Z"/><polygon class="cls-9" points="210.62 50.23 212.18 50.56 212.03 50.96 210.56 50.54 210.62 50.23"/><polygon class="cls-9" points="219.34 49.2 217.89 49.88 218.14 50.24 219.47 49.48 219.34 49.2"/><polygon class="cls-9" points="214.51 50.46 215.61 50.33 215.55 50.59 214.61 50.66 214.51 50.46"/><path class="cls-10" d="M212.39,50.09a1.79,1.79,0,0,0,.16-.69,1.55,1.55,0,0,1,.07-.43,1.17,1.17,0,0,1,.36-.44,3.29,3.29,0,0,1,1.94-.67,4.51,4.51,0,0,1,2.25.48,1.88,1.88,0,0,1,.56.41c.22.27.27.62.5.89a1.33,1.33,0,0,0,1.24.38,6,6,0,0,0,0-.85,3.79,3.79,0,0,1,.26-.71,1.74,1.74,0,0,0-.87-2,3.2,3.2,0,0,1-.78-.48,3.33,3.33,0,0,1-.38-.65,1.77,1.77,0,0,0-2-.57c-.22.08-.42.21-.64.3a5.26,5.26,0,0,1-1.37.25,4.3,4.3,0,0,0-1.32.35,1.43,1.43,0,0,0-.83.88c0,.17,0,.35-.08.52-.22.86-1.66,1.28-1.74,2.17a1.23,1.23,0,0,0,.36.88c.16.18.52.65.78.72s.45-.17.7-.25S212.19,50.42,212.39,50.09Z"/></g><path class="cls-3" d="M230.66,105c0,8,5.11,14.5,11.42,14.5"/><path class="cls-2" d="M242.08,119.5c0-8.1,5.7-14.66,12.75-14.66"/><path class="cls-2" d="M234.8,105.73c0,7.61,3.26,13.77,7.28,13.77"/><path class="cls-3" d="M242.08,119.5c0-10.35,6.59-18.73,14.73-18.73"/><ellipse class="cls-1" cx="241.59" cy="121.79" rx="2.84" ry="0.47"/><path class="cls-11" d="M239.68,119.6a6.08,6.08,0,0,0,2.11-.39c.48-.34,2.49-.75,2.61-.2s2.43,2.72.6,2.74a16,16,0,0,1-4.73-.57C239.78,120.88,239.68,119.6,239.68,119.6Z"/><path class="cls-12" d="M245,121.56a16,16,0,0,1-4.74-.57c-.37-.23-.51-1-.57-1.39h0s.1,1.28.59,1.58a16,16,0,0,0,4.74.57c.52,0,.71-.19.7-.46C245.63,121.45,245.44,121.55,245,121.56Z"/><path class="cls-3" d="M106.79,109.68c0,6.38,4.06,11.53,9.09,11.53"/><path class="cls-2" d="M115.88,121.21c0-6.44,4.53-11.66,10.13-11.66"/><path class="cls-2" d="M110.08,110.26c0,6.06,2.6,11,5.8,11"/><path class="cls-3" d="M115.88,121.21c0-8.23,5.24-14.9,11.71-14.9"/><ellipse class="cls-1" cx="115.48" cy="123.04" rx="2.26" ry="0.38"/><path class="cls-11" d="M114,121.3a4.64,4.64,0,0,0,1.67-.32c.39-.28,2-.6,2.08-.16s1.94,2.17.49,2.18a12.33,12.33,0,0,1-3.77-.46C114.05,122.31,114,121.3,114,121.3Z"/><path class="cls-12" d="M118.23,122.86a12.28,12.28,0,0,1-3.77-.46c-.3-.17-.41-.81-.45-1.1h0s.08,1,.46,1.26a12.74,12.74,0,0,0,3.77.45c.42,0,.57-.15.56-.37C118.7,122.77,118.54,122.85,118.23,122.86Z"/></svg>